<svg width="17" height="19" viewBox="0 0 17 19" fill="none" xmlns="http://www.w3.org/2000/svg">
<path fill-rule="evenodd" clip-rule="evenodd" d="M12.2933 0.704566L12.2942 1.39172C14.8193 1.58962 16.4873 3.31026 16.49 5.94894L16.5 13.6726C16.5036 16.5495 14.6962 18.3196 11.7992 18.3242L4.72256 18.3333C1.84359 18.337 0.0135819 16.5247 0.00996165 13.6396L6.0956e-06 6.00666C-0.00361411 3.35057 1.60557 1.63452 4.13066 1.40272L4.12975 0.715561C4.12885 0.312429 4.42751 0.00916433 4.82574 0.00916433C5.22396 0.00824812 5.52262 0.310597 5.52353 0.713728L5.52444 1.35507L10.9004 1.34774L10.8995 0.706398C10.8986 0.303267 11.1973 0.000918455 11.5955 2.24728e-06C11.9847 -0.000913961 12.2924 0.301435 12.2933 0.704566ZM1.39474 6.28976L15.0972 6.27144V5.95077C15.0583 3.98092 14.07 2.94744 12.2961 2.79351L12.297 3.49899C12.297 3.89296 11.9902 4.20539 11.601 4.20539C11.2028 4.20631 10.9032 3.8948 10.9032 3.50083L10.9023 2.7587L5.5263 2.76603L5.5272 3.50724C5.5272 3.90213 5.22944 4.21364 4.83122 4.21364C4.43299 4.21455 4.13342 3.90396 4.13342 3.50907L4.13252 2.80359C2.36767 2.98042 1.39112 4.01757 1.39383 6.00482L1.39474 6.28976ZM11.2198 10.4539V10.464C11.2289 10.8855 11.5728 11.2052 11.99 11.1961C12.3973 11.186 12.7222 10.8369 12.7132 10.4154C12.6942 10.0123 12.3674 9.6834 11.9611 9.68431C11.5448 9.69348 11.2189 10.0325 11.2198 10.4539ZM11.9676 14.5677C11.5512 14.5585 11.2155 14.2113 11.2146 13.7898C11.2055 13.3684 11.5395 13.0193 11.9558 13.0092H11.9648C12.3902 13.0092 12.735 13.3565 12.735 13.7871C12.7359 14.2177 12.392 14.5668 11.9676 14.5677ZM7.49107 10.4686C7.50917 10.89 7.85399 11.219 8.27032 11.2006C8.67759 11.1814 9.0025 10.8332 8.9844 10.4118C8.97445 9.99949 8.63958 9.67882 8.2323 9.67973C7.81598 9.69806 7.49016 10.0471 7.49107 10.4686ZM8.27416 14.5265C7.85783 14.5448 7.51392 14.2159 7.49491 13.7944C7.49491 13.373 7.81982 13.0248 8.23615 13.0056C8.64342 13.0047 8.97919 13.3253 8.98824 13.7367C9.00725 14.1591 8.68143 14.5072 8.27416 14.5265ZM3.76229 10.5007C3.78039 10.9221 4.12522 11.2519 4.54154 11.2327C4.94881 11.2144 5.27373 10.8653 5.25472 10.4438C5.24567 10.0316 4.9108 9.71088 4.50262 9.7118C4.0863 9.73012 3.76139 10.0792 3.76229 10.5007ZM4.54512 14.5311C4.1288 14.5503 3.78488 14.2205 3.76587 13.799C3.76497 13.3776 4.09078 13.0285 4.50711 13.0102C4.91438 13.0092 5.25015 13.3299 5.2592 13.7422C5.27821 14.1637 4.9533 14.5127 4.54512 14.5311Z" fill="#9B9B9B"/>
</svg>
