<svg width="36" height="36" viewBox="0 0 36 36" fill="none" xmlns="http://www.w3.org/2000/svg">
<path d="M0 18C0 8.05888 8.05888 0 18 0C27.9411 0 36 8.05888 36 18C36 27.9411 27.9411 36 18 36C8.05888 36 0 27.9411 0 18Z" fill="#292861"/>
<path d="M25.5337 25.0332L26.0891 25.5372L26.0894 25.5368L25.5337 25.0332ZM24.167 26.0165L23.8826 25.3225L23.8785 25.3242L24.167 26.0165ZM16.9587 24.0748L16.5163 24.6805L16.5172 24.6812L16.9587 24.0748ZM14.2253 21.7415L13.6924 22.2693L13.6976 22.2744L14.2253 21.7415ZM11.9003 19.0165L11.2915 19.4545L11.294 19.4579L11.9003 19.0165ZM10.267 16.1748L9.57576 16.4659L9.57669 16.4681L10.267 16.1748ZM9.96699 11.8415L10.6634 12.1201L10.6649 12.1161L9.96699 11.8415ZM10.9253 10.4498L11.44 10.9954L11.4458 10.9899L11.4515 10.9843L10.9253 10.4498ZM13.3337 9.8165L13.0091 10.4927L13.0194 10.4975L13.3337 9.8165ZM13.892 10.2832L13.2753 10.7101L13.2803 10.7172L13.892 10.2832ZM15.8253 13.0082L15.2136 13.4422L15.2167 13.4464L15.8253 13.0082ZM16.1587 13.5915L15.4644 13.8755L15.4693 13.8869L16.1587 13.5915ZM16.1003 14.6915L15.4597 14.3015L15.4534 14.3119L15.4474 14.3225L16.1003 14.6915ZM15.6337 15.2832L15.1033 14.7528L15.0982 14.758L15.0932 14.7632L15.6337 15.2832ZM15.0003 15.9415L15.5307 16.4718L15.5358 16.4667L15.5408 16.4615L15.0003 15.9415ZM14.892 16.4665L14.1644 16.6484L14.1747 16.6898L14.1897 16.7298L14.892 16.4665ZM14.9587 16.6332L14.2471 16.8703L14.2683 16.9337L14.3002 16.9923L14.9587 16.6332ZM15.7337 17.6998L15.1611 18.1843L15.1665 18.1906L15.7337 17.6998ZM16.942 19.0165L16.4066 19.5418L16.4116 19.5468L16.4166 19.5518L16.942 19.0165ZM18.267 20.2415L17.7816 20.8132L17.7825 20.814L18.267 20.2415ZM19.342 21.0082L18.9911 21.671L19.0264 21.6897L19.0634 21.7045L19.342 21.0082ZM19.492 21.0748L19.1966 21.7642L19.2125 21.771L19.2287 21.7771L19.492 21.0748ZM20.042 20.9665L19.5152 20.4327L19.5117 20.4362L20.042 20.9665ZM20.6753 20.3415L21.2021 20.8753L21.2057 20.8718L20.6753 20.3415ZM21.2753 19.8748L21.6223 20.5398L21.6442 20.5283L21.6653 20.5155L21.2753 19.8748ZM22.9587 20.1332L23.3928 19.5216L23.3867 19.5172L23.3804 19.513L22.9587 20.1332ZM25.717 22.0915L25.2828 22.7031L25.2901 22.7081L25.717 22.0915ZM26.1753 22.6248L26.8717 22.3463L26.8669 22.3345L26.8618 22.3228L26.1753 22.6248ZM22.667 15.4998C22.667 15.9141 23.0028 16.2498 23.417 16.2498C23.8312 16.2498 24.167 15.9141 24.167 15.4998H22.667ZM22.442 13.6082L21.8921 14.1182L21.8937 14.1199L22.442 13.6082ZM20.5003 11.8332C20.0861 11.8332 19.7503 12.169 19.7503 12.5832C19.7503 12.9974 20.0861 13.3332 20.5003 13.3332V11.8332ZM25.5837 15.4998C25.5837 15.9141 25.9194 16.2498 26.3337 16.2498C26.7479 16.2498 27.0837 15.9141 27.0837 15.4998H25.5837ZM20.5003 8.9165C20.0861 8.9165 19.7503 9.25229 19.7503 9.6665C19.7503 10.0807 20.0861 10.4165 20.5003 10.4165V8.9165ZM25.5587 23.2748C25.5587 23.4624 25.5173 23.6615 25.4221 23.8629L26.7785 24.5034C26.9667 24.1049 27.0587 23.6873 27.0587 23.2748H25.5587ZM25.4221 23.8629C25.3102 24.0999 25.1672 24.3207 24.9779 24.5295L26.0894 25.5368C26.3835 25.2123 26.6071 24.8664 26.7785 24.5034L25.4221 23.8629ZM24.9782 24.5292C24.636 24.9064 24.2758 25.1614 23.8826 25.3225L24.4514 26.7105C25.0748 26.455 25.6147 26.06 26.0891 25.5372L24.9782 24.5292ZM23.8785 25.3242C23.4734 25.493 23.0301 25.5832 22.542 25.5832V27.0832C23.2205 27.0832 23.8606 26.9567 24.4555 26.7088L23.8785 25.3242ZM22.542 25.5832C21.8106 25.5832 21.0023 25.4111 20.1193 25.0349L19.5313 26.4148C20.565 26.8552 21.5734 27.0832 22.542 27.0832V25.5832ZM20.1193 25.0349C19.2185 24.651 18.3092 24.1304 17.4001 23.4685L16.5172 24.6812C17.5081 25.4026 18.5155 25.982 19.5313 26.4148L20.1193 25.0349ZM17.401 23.4692C16.4736 22.7918 15.5937 22.0412 14.7531 21.2086L13.6976 22.2744C14.5902 23.1585 15.527 23.9579 16.5163 24.6805L17.401 23.4692ZM14.7582 21.2137C13.9255 20.3729 13.1752 19.4933 12.5066 18.5751L11.294 19.4579C12.0088 20.4397 12.8085 21.3767 13.6924 22.2693L14.7582 21.2137ZM12.5092 18.5786C11.8522 17.6652 11.3319 16.7635 10.9573 15.8816L9.57669 16.4681C10.0021 17.4695 10.5817 18.4678 11.2915 19.4545L12.5092 18.5786ZM10.9582 15.8838C10.5898 15.0088 10.417 14.1995 10.417 13.4498H8.91699C8.91699 14.4335 9.14419 15.4409 9.57577 16.4659L10.9582 15.8838ZM10.417 13.4498C10.417 12.9721 10.5011 12.5256 10.6633 12.12L9.27063 11.563C9.03285 12.1574 8.91699 12.7943 8.91699 13.4498H10.417ZM10.6649 12.1161C10.822 11.7167 11.0736 11.3411 11.44 10.9954L10.4107 9.90429C9.89375 10.3919 9.51193 10.9496 9.26907 11.5669L10.6649 12.1161ZM11.4515 10.9843C11.8716 10.5708 12.2739 10.4165 12.6587 10.4165V8.9165C11.8101 8.9165 11.0457 9.27891 10.3992 9.91535L11.4515 10.9843ZM12.6587 10.4165C12.787 10.4165 12.9085 10.4443 13.0091 10.4926L13.6582 9.14036C13.3422 8.98867 12.997 8.9165 12.6587 8.9165V10.4165ZM13.0194 10.4975C13.1246 10.546 13.2078 10.6125 13.2753 10.7101L14.5086 9.85626C14.2762 9.52049 13.976 9.28696 13.648 9.13553L13.0194 10.4975ZM13.2803 10.7172L15.2136 13.4422L16.437 12.5742L14.5037 9.84919L13.2803 10.7172ZM15.2167 13.4464C15.3395 13.617 15.4161 13.7572 15.4645 13.8755L16.8528 13.3075C16.7512 13.0591 16.6111 12.816 16.434 12.5699L15.2167 13.4464ZM15.4693 13.8869C15.5151 13.9937 15.5253 14.0673 15.5253 14.0998H17.0253C17.0253 13.8158 16.9523 13.5393 16.848 13.2961L15.4693 13.8869ZM15.5253 14.0998C15.5253 14.1489 15.5121 14.2154 15.4597 14.3015L16.741 15.0815C16.9219 14.7843 17.0253 14.4508 17.0253 14.0998H15.5253ZM15.4474 14.3225C15.381 14.44 15.2693 14.5868 15.1033 14.7528L16.164 15.8135C16.398 15.5795 16.603 15.3263 16.7532 15.0605L15.4474 14.3225ZM15.0932 14.7632L14.4598 15.4215L15.5408 16.4615L16.1742 15.8031L15.0932 14.7632ZM14.47 15.4112C14.2261 15.6551 14.117 15.9596 14.117 16.2748H15.617C15.617 16.2875 15.6147 16.3229 15.5965 16.3688C15.5778 16.4161 15.5514 16.4511 15.5307 16.4718L14.47 15.4112ZM14.117 16.2748C14.117 16.4126 14.1354 16.5325 14.1644 16.6484L15.6196 16.2846C15.6167 16.273 15.6164 16.2698 15.6167 16.2715C15.6168 16.2723 15.6169 16.2734 15.6169 16.2745C15.617 16.2755 15.617 16.2758 15.617 16.2748H14.117ZM14.1897 16.7298C14.2088 16.7807 14.228 16.8253 14.2377 16.8483C14.25 16.8774 14.2494 16.877 14.2471 16.8703L15.6702 16.396C15.6513 16.3393 15.6298 16.289 15.6192 16.2639C15.606 16.2327 15.6002 16.219 15.5942 16.2032L14.1897 16.7298ZM14.3002 16.9923C14.4857 17.3323 14.7812 17.7353 15.1611 18.1843L16.3062 17.2154C15.9528 16.7977 15.7316 16.4841 15.6171 16.274L14.3002 16.9923ZM15.1665 18.1906C15.5492 18.6328 15.9599 19.0864 16.4066 19.5418L17.4773 18.4912C17.0574 18.0633 16.6682 17.6336 16.3008 17.2091L15.1665 18.1906ZM16.4166 19.5518C16.8727 19.9994 17.3204 20.4217 17.7816 20.8132L18.7524 19.6698C18.3302 19.3113 17.9113 18.917 17.4673 18.4812L16.4166 19.5518ZM17.7825 20.814C18.2381 21.1995 18.6423 21.4864 18.9911 21.671L19.6929 20.3453C19.475 20.23 19.1626 20.0169 18.7514 19.669L17.7825 20.814ZM19.0634 21.7045C19.0624 21.7041 19.0643 21.7048 19.0709 21.7078C19.0776 21.7108 19.0858 21.7145 19.0983 21.7202C19.1206 21.7304 19.157 21.7472 19.1966 21.7642L19.7874 20.3855C19.7687 20.3774 19.7509 20.3693 19.7232 20.3566C19.7007 20.3462 19.6612 20.3281 19.6205 20.3118L19.0634 21.7045ZM19.2287 21.7771C19.4049 21.8432 19.5672 21.8582 19.7003 21.8582V20.3582C19.6902 20.3582 19.6937 20.3576 19.7054 20.3593C19.7184 20.3613 19.736 20.3654 19.7553 20.3726L19.2287 21.7771ZM19.7003 21.8582C20.0515 21.8582 20.3477 21.7214 20.5723 21.4968L19.5117 20.4362C19.5233 20.4245 19.5514 20.4007 19.596 20.3817C19.6414 20.3624 19.6801 20.3582 19.7003 20.3582V21.8582ZM20.5688 21.5003L21.2021 20.8753L20.1485 19.8077L19.5152 20.4327L20.5688 21.5003ZM21.2057 20.8718C21.3837 20.6938 21.5225 20.5918 21.6223 20.5398L20.9284 19.2099C20.6448 19.3579 20.3837 19.5725 20.145 19.8112L21.2057 20.8718ZM21.6653 20.5155C21.7542 20.4614 21.8125 20.4498 21.867 20.4498V18.9498C21.5049 18.9498 21.1798 19.0549 20.8854 19.2342L21.6653 20.5155ZM21.867 20.4498C21.9154 20.4498 21.9858 20.4591 22.0914 20.5023L22.6593 19.114C22.3982 19.0072 22.1353 18.9498 21.867 18.9498V20.4498ZM22.0914 20.5023C22.2117 20.5516 22.3564 20.6306 22.5369 20.7534L23.3804 19.513C23.1442 19.3524 22.9056 19.2148 22.6593 19.114L22.0914 20.5023ZM22.5245 20.7447L25.2828 22.7031L26.1512 21.48L23.3928 19.5216L22.5245 20.7447ZM25.2901 22.7081C25.4103 22.7913 25.4609 22.8635 25.4888 22.9269L26.8618 22.3228C26.7064 21.9695 26.4571 21.6917 26.1439 21.4749L25.2901 22.7081ZM25.479 22.9034C25.5349 23.0432 25.5587 23.1564 25.5587 23.2748H27.0587C27.0587 22.9266 26.9824 22.6231 26.8717 22.3463L25.479 22.9034ZM24.167 15.4998C24.167 15.08 24.0115 14.6397 23.8153 14.258C23.6112 13.861 23.3266 13.4568 22.9903 13.0964L21.8937 14.1199C22.1407 14.3846 22.3436 14.6762 22.4812 14.9438C22.6266 15.2266 22.667 15.4197 22.667 15.4998H24.167ZM22.9919 13.0981C22.3959 12.4556 21.5024 11.8332 20.5003 11.8332V13.3332C20.8982 13.3332 21.4214 13.6107 21.8921 14.1182L22.9919 13.0981ZM27.0837 15.4998C27.0837 11.8606 24.1395 8.9165 20.5003 8.9165V10.4165C23.3111 10.4165 25.5837 12.6891 25.5837 15.4998H27.0837Z" fill="white"/>
</svg>
