<svg width="14" height="14" viewBox="0 0 14 14" fill="none" xmlns="http://www.w3.org/2000/svg">
<path d="M4.0835 10.4998C4.0835 10.4998 2.3335 5.83317 2.3335 3.49984C2.3335 1.1665 3.50016 1.1665 3.50016 1.1665H4.0835C4.0835 1.1665 4.66683 1.1665 4.66683 1.74984C4.66683 2.33317 4.0835 2.33317 4.0835 3.49984C4.0835 4.6665 5.8335 5.83317 5.8335 7.58317C5.8335 9.33317 4.0835 10.4998 4.0835 10.4998ZM7.00016 9.9165C6.41683 9.9165 4.66683 11.3748 4.66683 11.3748C4.49183 11.4915 4.55016 11.6665 4.66683 11.8415C4.66683 11.8415 5.25016 12.8915 6.41683 12.8915H9.91683C10.5585 12.8915 11.0835 12.3665 11.0835 11.7248V11.1415C11.0835 10.4998 10.5585 9.97484 9.91683 9.97484H7.00016V9.9165Z" fill="#0C44FF"/>
</svg>
