<svg width="25" height="25" viewBox="0 0 25 25" fill="none" xmlns="http://www.w3.org/2000/svg">
<path d="M16.3972 7.30549C15.7184 5.71639 14.5118 4.41041 12.9812 3.60835C11.4506 2.80628 9.69006 2.55733 7.99712 2.90359C6.30418 3.24986 4.78274 4.17008 3.69001 5.5087C2.59727 6.84731 2.0003 8.52219 2 10.2502V16.4377C2 16.7858 2.13828 17.1196 2.38442 17.3658C2.63056 17.6119 2.9644 17.7502 3.3125 17.7502H8.62531C9.21058 19.0867 10.1723 20.224 11.3931 21.0231C12.6139 21.8222 14.0409 22.2486 15.5 22.2502H21.6875C22.0356 22.2502 22.3694 22.1119 22.6156 21.8658C22.8617 21.6196 23 21.2858 23 20.9377V14.7502C22.9996 12.9167 22.3277 11.1468 21.1111 9.7751C19.8945 8.40338 18.2175 7.52483 16.3972 7.30549ZM21.5 20.7502H15.5C14.439 20.749 13.3973 20.4671 12.4805 19.9331C11.5637 19.3991 10.8045 18.6321 10.28 17.7099C11.3072 17.6033 12.3013 17.2855 13.1999 16.7765C14.0985 16.2674 14.8822 15.5782 15.5018 14.7519C16.1213 13.9256 16.5634 12.9802 16.8003 11.975C17.0371 10.9698 17.0636 9.92645 16.8781 8.91049C18.1937 9.22096 19.3659 9.96656 20.2048 11.0265C21.0436 12.0864 21.5 13.3985 21.5 14.7502V20.7502Z" fill="#292861"/>
</svg>
