<svg width="25" height="24" viewBox="0 0 25 24" fill="none" xmlns="http://www.w3.org/2000/svg">
<path d="M16.3972 6.81526C15.7184 5.22616 14.5118 3.92018 12.9812 3.11811C11.4506 2.31605 9.69006 2.0671 7.99712 2.41336C6.30418 2.75962 4.78274 3.67985 3.69001 5.01846C2.59727 6.35708 2.0003 8.03196 2 9.75995V15.9474C2 16.2955 2.13828 16.6294 2.38442 16.8755C2.63056 17.1217 2.9644 17.2599 3.3125 17.2599H8.62531C9.21058 18.5965 10.1723 19.7337 11.3931 20.5328C12.6139 21.3319 14.0409 21.7583 15.5 21.7599H21.6875C22.0356 21.7599 22.3694 21.6217 22.6156 21.3755C22.8617 21.1294 23 20.7955 23 20.4474V14.2599C22.9996 12.4264 22.3277 10.6566 21.1111 9.28486C19.8945 7.91314 18.2175 7.03459 16.3972 6.81526ZM3.5 9.75995C3.5 8.57326 3.85189 7.41322 4.51118 6.42653C5.17047 5.43983 6.10754 4.6708 7.2039 4.21667C8.30026 3.76255 9.50666 3.64373 10.6705 3.87524C11.8344 4.10675 12.9035 4.67819 13.7426 5.51731C14.5818 6.35642 15.1532 7.42552 15.3847 8.58941C15.6162 9.75329 15.4974 10.9597 15.0433 12.056C14.5892 13.1524 13.8201 14.0895 12.8334 14.7488C11.8467 15.4081 10.6867 15.7599 9.5 15.7599H3.5V9.75995ZM21.5 20.2599H15.5C14.439 20.2587 13.3973 19.9768 12.4805 19.4429C11.5637 18.9089 10.8045 18.1419 10.28 17.2196C11.3072 17.113 12.3013 16.7953 13.1999 16.2862C14.0985 15.7772 14.8822 15.0879 15.5018 14.2617C16.1213 13.4354 16.5634 12.49 16.8003 11.4848C17.0371 10.4795 17.0636 9.43621 16.8781 8.42026C18.1937 8.73073 19.3659 9.47633 20.2048 10.5362C21.0436 11.5961 21.5 12.9082 21.5 14.2599V20.2599Z" fill="#9E9E9E"/>
</svg>
