<svg width="25" height="25" viewBox="0 0 25 25" fill="none" xmlns="http://www.w3.org/2000/svg">
<path d="M21.0153 10.2283L13.5153 3.15206C13.5116 3.14886 13.5082 3.14541 13.505 3.14175C13.2289 2.89062 12.869 2.75146 12.4958 2.75146C12.1225 2.75146 11.7627 2.89062 11.4866 3.14175L11.4763 3.15206L3.98469 10.2283C3.83187 10.3688 3.70989 10.5395 3.62646 10.7296C3.54303 10.9197 3.49997 11.1251 3.5 11.3327V19.9999C3.5 20.3977 3.65804 20.7792 3.93934 21.0605C4.22064 21.3418 4.60218 21.4999 5 21.4999H9.5C9.89782 21.4999 10.2794 21.3418 10.5607 21.0605C10.842 20.7792 11 20.3977 11 19.9999V15.4999H14V19.9999C14 20.3977 14.158 20.7792 14.4393 21.0605C14.7206 21.3418 15.1022 21.4999 15.5 21.4999H20C20.3978 21.4999 20.7794 21.3418 21.0607 21.0605C21.342 20.7792 21.5 20.3977 21.5 19.9999V11.3327C21.5 11.1251 21.457 10.9197 21.3735 10.7296C21.2901 10.5395 21.1681 10.3688 21.0153 10.2283ZM20 19.9999H15.5V15.4999C15.5 15.102 15.342 14.7205 15.0607 14.4392C14.7794 14.1579 14.3978 13.9999 14 13.9999H11C10.6022 13.9999 10.2206 14.1579 9.93934 14.4392C9.65804 14.7205 9.5 15.102 9.5 15.4999V19.9999H5V11.3327L5.01031 11.3233L12.5 4.24987L19.9906 11.3214L20.0009 11.3308L20 19.9999Z" fill="#9E9E9E"/>
</svg>
