<svg width="25" height="24" viewBox="0 0 25 24" fill="none" xmlns="http://www.w3.org/2000/svg">
<path d="M21.5 10.8424V19.5096C21.5 19.9075 21.342 20.289 21.0607 20.5703C20.7794 20.8516 20.3978 21.0096 20 21.0096H16.25C15.8522 21.0096 15.4706 20.8516 15.1893 20.5703C14.908 20.289 14.75 19.9075 14.75 19.5096V15.7596C14.75 15.5607 14.671 15.37 14.5303 15.2293C14.3897 15.0887 14.1989 15.0096 14 15.0096H11C10.8011 15.0096 10.6103 15.0887 10.4697 15.2293C10.329 15.37 10.25 15.5607 10.25 15.7596V19.5096C10.25 19.9075 10.092 20.289 9.81066 20.5703C9.52936 20.8516 9.14782 21.0096 8.75 21.0096H5C4.60218 21.0096 4.22064 20.8516 3.93934 20.5703C3.65804 20.289 3.5 19.9075 3.5 19.5096V10.8424C3.49997 10.6348 3.54303 10.4295 3.62646 10.2394C3.70989 10.0493 3.83187 9.87859 3.98469 9.73807L11.4847 2.66182L11.495 2.65151C11.7711 2.40039 12.131 2.26123 12.5042 2.26123C12.8775 2.26123 13.2373 2.40039 13.5134 2.65151C13.5166 2.65518 13.5201 2.65862 13.5238 2.66182L21.0238 9.73807C21.175 9.87934 21.2954 10.0504 21.3774 10.2404C21.4594 10.4305 21.5011 10.6355 21.5 10.8424Z" fill="#292861"/>
</svg>
