<svg width="20" height="20" viewBox="0 0 20 20" fill="none" xmlns="http://www.w3.org/2000/svg">
<path d="M5.58367 14.9998H3.45868C2.26701 14.9998 1.66699 14.3998 1.66699 13.2082V3.45819C1.66699 2.26652 2.26701 1.6665 3.45868 1.6665H7.042C8.23367 1.6665 8.83364 2.26652 8.83364 3.45819V4.99984M11.167 4.99984V3.45819C11.167 2.26652 11.767 1.6665 12.9586 1.6665H16.542C17.7336 1.6665 18.3337 2.26652 18.3337 3.45819V13.2082C18.3337 14.3998 17.7336 14.9998 16.542 14.9998H14.4753M8.33366 9.1665H11.667M8.33366 11.6665H11.667M10.0003 18.3332V15.8332M14.4753 7.01649V16.3165C14.4753 17.6582 13.8087 18.3332 12.467 18.3332H7.60032C6.25865 18.3332 5.58367 17.6582 5.58367 16.3165V7.01649C5.58367 5.67482 6.25865 4.99984 7.60032 4.99984H12.467C13.8087 4.99984 14.4753 5.67482 14.4753 7.01649Z" stroke="#6B7280" stroke-width="1.5" stroke-miterlimit="10" stroke-linecap="round" stroke-linejoin="round"/>
</svg>
