<svg width="20" height="20" viewBox="0 0 20 20" fill="none" xmlns="http://www.w3.org/2000/svg">
<path d="M7.07843 14.7498H7.08592M12.9118 14.7498H12.9192M7.91634 4.1665H12.083M14.083 18.3332H5.91635C4.49968 18.3332 3.33301 17.1748 3.33301 15.7498V4.24984C3.33301 2.83318 4.49135 1.6665 5.91635 1.6665H14.083C15.4997 1.6665 16.6663 2.82484 16.6663 4.24984V15.7498C16.6663 17.1748 15.508 18.3332 14.083 18.3332ZM15.4163 10.8332H4.58301C3.89134 10.8332 3.33301 10.2748 3.33301 9.58317V7.9165C3.33301 7.22484 3.89134 6.6665 4.58301 6.6665H15.4163C16.108 6.6665 16.6663 7.22484 16.6663 7.9165V9.58317C16.6663 10.2748 16.108 10.8332 15.4163 10.8332Z" stroke="#6B7280" stroke-width="1.5" stroke-linecap="round" stroke-linejoin="round"/>
</svg>
