<svg width="25" height="25" viewBox="0 0 25 25" fill="none" xmlns="http://www.w3.org/2000/svg">
<path d="M22.1499 21.1251C22.0841 21.2391 21.9894 21.3338 21.8753 21.3997C21.7613 21.4655 21.6319 21.5001 21.5002 21.5001H3.50021C3.36862 21.5 3.23938 21.4652 3.12548 21.3993C3.01157 21.3335 2.917 21.2388 2.85127 21.1248C2.78553 21.0108 2.75094 20.8815 2.75098 20.7499C2.75101 20.6183 2.78566 20.4891 2.85146 20.3751C4.27927 17.9067 6.47958 16.1367 9.04739 15.2976C7.77724 14.5415 6.79041 13.3893 6.23845 12.018C5.68648 10.6468 5.59991 9.13224 5.99203 7.70701C6.38414 6.28178 7.23326 5.02467 8.40898 4.12873C9.5847 3.23279 11.022 2.74756 12.5002 2.74756C13.9784 2.74756 15.4157 3.23279 16.5914 4.12873C17.7672 5.02467 18.6163 6.28178 19.0084 7.70701C19.4005 9.13224 19.3139 10.6468 18.762 12.018C18.21 13.3893 17.2232 14.5415 15.953 15.2976C18.5208 16.1367 20.7211 17.9067 22.149 20.3751C22.2149 20.489 22.2497 20.6183 22.2499 20.75C22.2501 20.8816 22.2156 21.011 22.1499 21.1251Z" fill="#292861"/>
</svg>
