<svg width="21" height="20" viewBox="0 0 21 20" fill="none" xmlns="http://www.w3.org/2000/svg">
<path d="M20.1486 18.3751C18.7208 15.9067 16.5205 14.1367 13.9527 13.2976C15.2229 12.5415 16.2097 11.3893 16.7617 10.018C17.3136 8.64678 17.4002 7.13224 17.0081 5.70701C16.616 4.28178 15.7668 3.02467 14.5911 2.12873C13.4154 1.23279 11.9781 0.747559 10.4999 0.747559C9.0217 0.747559 7.58438 1.23279 6.40866 2.12873C5.23294 3.02467 4.38382 4.28178 3.99171 5.70701C3.59959 7.13224 3.68616 8.64678 4.23813 10.018C4.79009 11.3893 5.77692 12.5415 7.04708 13.2976C4.47926 14.1357 2.27895 15.9057 0.851138 18.3751C0.798777 18.4605 0.764047 18.5555 0.748996 18.6545C0.733945 18.7535 0.738878 18.8545 0.763504 18.9516C0.78813 19.0487 0.831951 19.1399 0.89238 19.2197C0.952809 19.2996 1.02862 19.3666 1.11535 19.4167C1.20207 19.4667 1.29795 19.499 1.39733 19.5114C1.49671 19.5238 1.59757 19.5163 1.69397 19.4891C1.79037 19.4619 1.88034 19.4157 1.95859 19.3532C2.03684 19.2907 2.10178 19.2131 2.14958 19.1251C3.91583 16.0726 7.0377 14.2501 10.4999 14.2501C13.9621 14.2501 17.084 16.0726 18.8502 19.1251C18.898 19.2131 18.9629 19.2907 19.0412 19.3532C19.1194 19.4157 19.2094 19.4619 19.3058 19.4891C19.4022 19.5163 19.5031 19.5238 19.6024 19.5114C19.7018 19.499 19.7977 19.4667 19.8844 19.4167C19.9712 19.3666 20.047 19.2996 20.1074 19.2197C20.1678 19.1399 20.2116 19.0487 20.2363 18.9516C20.2609 18.8545 20.2658 18.7535 20.2508 18.6545C20.2357 18.5555 20.201 18.4605 20.1486 18.3751ZM5.24989 7.50011C5.24989 6.46176 5.55779 5.44672 6.13467 4.58337C6.71155 3.72001 7.53149 3.0471 8.4908 2.64974C9.45011 2.25238 10.5057 2.14841 11.5241 2.35099C12.5425 2.55356 13.478 3.05357 14.2122 3.7878C14.9464 4.52202 15.4464 5.45748 15.649 6.47589C15.8516 7.49429 15.7476 8.54989 15.3503 9.5092C14.9529 10.4685 14.28 11.2884 13.4166 11.8653C12.5533 12.4422 11.5382 12.7501 10.4999 12.7501C9.10796 12.7486 7.77347 12.195 6.78922 11.2108C5.80498 10.2265 5.25138 8.89204 5.24989 7.50011Z" fill="#9E9E9E"/>
</svg>
