<svg width="36" height="36" viewBox="0 0 36 36" fill="none" xmlns="http://www.w3.org/2000/svg">
<g clip-path="url(#clip0_524_589)">
<path d="M13.5 6.75H15.1875V10.6875H13.5V6.75Z" fill="#F8BA2C"/>
<path d="M20.8125 6.75H22.5V10.6875H20.8125V6.75Z" fill="#F8BA2C"/>
<path d="M23.2039 7.875H12.7961C12.5384 7.875 12.2838 7.81839 12.0503 7.70917C11.8169 7.59995 11.6103 7.44078 11.4452 7.24293C11.28 7.04507 11.1603 6.81335 11.0946 6.56415C11.0288 6.31495 11.0186 6.05436 11.0647 5.80078L11.5499 3.13284C11.6235 2.72732 11.8372 2.36051 12.1536 2.09637C12.4699 1.83224 12.869 1.68754 13.2812 1.6875H22.7188C23.1309 1.68749 23.53 1.83213 23.8464 2.09619C24.1628 2.36026 24.3765 2.72701 24.4502 3.13249L24.9354 5.80043C24.9815 6.05404 24.9714 6.31469 24.9056 6.56394C24.8399 6.8132 24.7202 7.04497 24.5551 7.24287C24.3899 7.44077 24.1833 7.59996 23.9498 7.70919C23.7163 7.81843 23.4617 7.87503 23.2039 7.875Z" fill="#D1D1D1"/>
<path d="M29.25 30.375H6.75L9.23203 12.0058C9.32349 11.3291 9.65724 10.7086 10.1714 10.2593C10.6855 9.81002 11.3452 9.56244 12.028 9.5625H12.3616L18.2444 11.6719L23.5999 9.5625H23.972C24.6548 9.56244 25.3145 9.81002 25.8286 10.2593C26.3428 10.7086 26.6765 11.3291 26.768 12.0058L29.25 30.375Z" fill="#D1D1D1"/>
<path d="M12.375 9.5625H23.625V15.1875H12.375V9.5625Z" fill="#F2F2F2"/>
<path d="M12.375 15.1875H23.625V20.8125H12.375V15.1875Z" fill="#E6E6E6"/>
<path d="M12.375 20.8125H23.625V25.3167C23.625 25.614 23.5069 25.899 23.2967 26.1092C23.0865 26.3194 22.8015 26.4375 22.5042 26.4375H13.4958C13.1985 26.4375 12.9135 26.3194 12.7033 26.1092C12.4931 25.899 12.375 25.614 12.375 25.3167V20.8125Z" fill="#DBDBDB"/>
<path d="M27.5625 34.3125H8.4375C7.39321 34.3125 6.39169 33.8977 5.65327 33.1592C4.91484 32.4208 4.5 31.4193 4.5 30.375C4.5 29.3307 4.91484 28.3292 5.65327 27.5908C6.39169 26.8523 7.39321 26.4375 8.4375 26.4375C9.07199 26.4375 9.68688 26.6573 10.1775 27.0596C10.6682 27.4618 11.0044 28.0217 11.1288 28.6438C11.163 28.8148 11.2553 28.9686 11.3901 29.0791C11.5249 29.1896 11.6939 29.25 11.8682 29.25H24.1318C24.3061 29.25 24.4751 29.1896 24.6099 29.0791C24.7447 28.9686 24.837 28.8148 24.8712 28.6438C24.9956 28.0217 25.3318 27.4618 25.8225 27.0596C26.3131 26.6573 26.928 26.4375 27.5625 26.4375C28.6068 26.4375 29.6083 26.8523 30.3467 27.5908C31.0852 28.3292 31.5 29.3307 31.5 30.375C31.5 31.4193 31.0852 32.4208 30.3467 33.1592C29.6083 33.8977 28.6068 34.3125 27.5625 34.3125Z" fill="#C7C7C7"/>
<path d="M30.1343 30.3656C30.2505 30.4817 30.3426 30.6196 30.4055 30.7713C30.4683 30.9231 30.5007 31.0857 30.5007 31.25C30.5007 31.4142 30.4683 31.5768 30.4055 31.7286C30.3426 31.8803 30.2505 32.0182 30.1343 32.1343C30.0182 32.2505 29.8803 32.3426 29.7286 32.4055C29.5768 32.4683 29.4142 32.5007 29.25 32.5007C29.0857 32.5007 28.9231 32.4683 28.7713 32.4055C28.6196 32.3426 28.4817 32.2505 28.3656 32.1343L18 21.7671L7.63434 32.1343C7.39979 32.3689 7.08167 32.5007 6.74996 32.5007C6.41826 32.5007 6.10014 32.3689 5.86559 32.1343C5.63104 31.8998 5.49927 31.5817 5.49927 31.25C5.49927 30.9183 5.63104 30.6001 5.86559 30.3656L16.2328 20L5.86559 9.63434C5.63104 9.39979 5.49927 9.08167 5.49927 8.74996C5.49927 8.41826 5.63104 8.10014 5.86559 7.86559C6.10014 7.63104 6.41826 7.49927 6.74996 7.49927C7.08167 7.49927 7.39979 7.63104 7.63434 7.86559L18 18.2328L28.3656 7.86559C28.6001 7.63104 28.9183 7.49927 29.25 7.49927C29.5817 7.49927 29.8998 7.63104 30.1343 7.86559C30.3689 8.10014 30.5007 8.41826 30.5007 8.74996C30.5007 9.08167 30.3689 9.39979 30.1343 9.63434L19.7671 20L30.1343 30.3656Z" fill="#B3B3B3"/>
</g>
<defs>
<clipPath id="clip0_524_589">
<rect width="36" height="36" fill="white"/>
</clipPath>
</defs>
</svg>
