<svg width="27" height="33" viewBox="0 0 27 33" fill="none" xmlns="http://www.w3.org/2000/svg">
<path d="M9 5.0625H10.6875V9H9V5.0625Z" fill="white"/>
<path d="M16.3125 5.0625H18V9H16.3125V5.0625Z" fill="white"/>
<path d="M18.7039 6.1875H8.29609C8.03836 6.1875 7.78378 6.13089 7.55034 6.02167C7.31691 5.91245 7.11031 5.75328 6.94516 5.55543C6.78 5.35757 6.66033 5.12585 6.59459 4.87665C6.52885 4.62745 6.51865 4.36686 6.56471 4.11328L7.04987 1.44534C7.12351 1.03982 7.33716 0.67301 7.65355 0.408874C7.96995 0.144739 8.36901 3.674e-05 8.78117 6.45469e-10H18.2188C18.6309 -1.11568e-05 19.03 0.144626 19.3464 0.408694C19.6628 0.672762 19.8765 1.03951 19.9502 1.44499L20.4354 4.11293C20.4815 4.36654 20.4714 4.62719 20.4056 4.87644C20.3399 5.1257 20.2202 5.35747 20.0551 5.55537C19.8899 5.75327 19.6833 5.91246 19.4498 6.02169C19.2163 6.13093 18.9617 6.18753 18.7039 6.1875Z" fill="#2E2D6C"/>
<path d="M24.75 28.6875H2.25L4.73203 10.3183C4.82349 9.64164 5.15724 9.02112 5.67139 8.57182C6.18555 8.12252 6.8452 7.87494 7.52801 7.875H7.86164L13.7444 9.98438L19.0999 7.875H19.472C20.1548 7.87494 20.8145 8.12252 21.3286 8.57182C21.8428 9.02112 22.1765 9.64164 22.268 10.3183L24.75 28.6875Z" fill="#22214F"/>
<path d="M7.875 7.875H19.125V13.5H7.875V7.875Z" fill="#35347E"/>
<path d="M7.875 13.5H19.125V19.125H7.875V13.5Z" fill="#2E2D6C"/>
<path d="M7.875 19.125H19.125V23.6292C19.125 23.9265 19.0069 24.2115 18.7967 24.4217C18.5865 24.6319 18.3015 24.75 18.0042 24.75H8.99578C8.69853 24.75 8.41346 24.6319 8.20327 24.4217C7.99308 24.2115 7.875 23.9265 7.875 23.6292V19.125Z" fill="#292861"/>
<path d="M23.0625 32.625H3.9375C2.89321 32.625 1.89169 32.2102 1.15327 31.4717C0.414843 30.7333 0 29.7318 0 28.6875C0 27.6432 0.414843 26.6417 1.15327 25.9033C1.89169 25.1648 2.89321 24.75 3.9375 24.75C4.57199 24.75 5.18688 24.9698 5.67755 25.3721C6.16822 25.7743 6.50436 26.3342 6.62878 26.9563C6.66297 27.1273 6.75532 27.2811 6.89013 27.3916C7.02493 27.5021 7.19387 27.5625 7.36819 27.5625H19.6318C19.8061 27.5625 19.9751 27.5021 20.1099 27.3916C20.2447 27.2811 20.337 27.1273 20.3712 26.9563C20.4956 26.3342 20.8318 25.7743 21.3225 25.3721C21.8131 24.9698 22.428 24.75 23.0625 24.75C24.1068 24.75 25.1083 25.1648 25.8467 25.9033C26.5852 26.6417 27 27.6432 27 28.6875C27 29.7318 26.5852 30.7333 25.8467 31.4717C25.1083 32.2102 24.1068 32.625 23.0625 32.625Z" fill="#292861"/>
</svg>
