<svg width="25" height="25" viewBox="0 0 25 25" fill="none" xmlns="http://www.w3.org/2000/svg">
<path d="M21.7991 10.295C22.1379 10.2261 22.4425 10.0422 22.6613 9.77449C22.8802 9.50679 22.9998 9.1717 23 8.82594V6.5C23 6.10218 22.842 5.72064 22.5607 5.43934C22.2794 5.15804 21.8978 5 21.5 5H3.5C3.10218 5 2.72065 5.15804 2.43934 5.43934C2.15804 5.72064 2 6.10218 2 6.5V8.82594C2.00019 9.1717 2.11983 9.50679 2.33867 9.77449C2.55751 10.0422 2.86212 10.2261 3.20094 10.295C3.70757 10.4001 4.16251 10.6765 4.48912 11.0778C4.81573 11.4791 4.99406 11.9807 4.99406 12.4981C4.99406 13.0155 4.81573 13.5171 4.48912 13.9184C4.16251 14.3197 3.70757 14.5962 3.20094 14.7013C2.86148 14.7703 2.5564 14.9547 2.33748 15.2232C2.11857 15.4917 1.99933 15.8277 2 16.1741V18.5C2 18.8978 2.15804 19.2794 2.43934 19.5607C2.72065 19.842 3.10218 20 3.5 20H21.5C21.8978 20 22.2794 19.842 22.5607 19.5607C22.842 19.2794 23 18.8978 23 18.5V16.1741C22.9998 15.8283 22.8802 15.4932 22.6613 15.2255C22.4425 14.9578 22.1379 14.7739 21.7991 14.705C21.2924 14.5999 20.8375 14.3235 20.5109 13.9222C20.1843 13.5209 20.0059 13.0193 20.0059 12.5019C20.0059 11.9845 20.1843 11.4829 20.5109 11.0816C20.8375 10.6803 21.2924 10.4038 21.7991 10.2987V10.295ZM3.5 16.175C4.34722 16.0024 5.10876 15.5424 5.65573 14.8728C6.20269 14.2031 6.50146 13.3651 6.50146 12.5005C6.50146 11.6359 6.20269 10.7978 5.65573 10.1282C5.10876 9.45857 4.34722 8.99852 3.5 8.82594V6.5H8.75V18.5H3.5V16.175Z" fill="#292861"/>
</svg>
