<svg width="36" height="36" viewBox="0 0 36 36" fill="none" xmlns="http://www.w3.org/2000/svg">
<path d="M24.5737 0H11.4265C10.0567 0 8.94629 1.11045 8.94629 2.4802V6.20156C8.94629 7.57132 10.0567 8.68177 11.4265 8.68177H24.5737C25.9434 8.68177 27.0539 7.57132 27.0539 6.20156V2.4802C27.0539 1.11045 25.9435 0 24.5737 0Z" fill="#E6E6E6"/>
<path d="M20.7563 0H15.2439C13.8741 0 12.7637 1.11045 12.7637 2.4802V6.20156C12.7637 7.57132 13.8741 8.68177 15.2439 8.68177H20.7563C22.1261 8.68177 23.2365 7.57132 23.2365 6.20156V2.4802C23.2366 1.11045 22.1261 0 20.7563 0Z" fill="#D1D1D1"/>
<path d="M10 7.95752H26V31.9822H10V7.95752Z" fill="#F2F2F2"/>
<path d="M13.2288 29.3802H10.4731L9.74878 21.6002L10.4731 11.625H10.5688C12.5995 11.625 14.2457 13.2712 14.2457 15.3019V28.3633C14.2456 28.925 13.7903 29.3802 13.2288 29.3802Z" fill="#E6E6E6"/>
<path d="M10.4731 24.7563L9.74878 26.7551L10.4731 29.3804H13.2288C13.7903 29.3804 14.2456 28.9251 14.2456 28.3635V24.7564H10.4731V24.7563Z" fill="#DBDBDB"/>
<path d="M25.5269 27.2981L26.2513 20.5026L25.5269 11.625H25.4313C23.4006 11.625 21.7544 13.2712 21.7544 15.3019V27.9522" fill="#E6E6E6"/>
<path d="M21.7544 24.7563V29.2355L25.5269 28.1293L26.2513 25.9351L25.5269 24.7563H21.7544Z" fill="#DBDBDB"/>
<path d="M14.2457 22.6977H10.4731L9.74878 21.6001L10.4731 20.5024H14.2457V22.6977Z" fill="#DBDBDB"/>
<path d="M25.5269 22.6977H21.7544V20.5024H25.5269L26.2513 21.6001L25.5269 22.6977Z" fill="#DBDBDB"/>
<path d="M9.99492 31.9821H10.4733V7.95737L9.53796 6.99486C8.52714 5.95466 6.76392 6.67023 6.76392 8.12064V28.7511C6.76392 30.5356 8.21053 31.9821 9.99492 31.9821Z" fill="#D1D1D1"/>
<path d="M26.0054 31.9821H25.5271V7.95737L26.4624 6.99486C27.4732 5.95466 29.2364 6.67023 29.2364 8.12064V28.7511C29.2364 30.5356 27.7898 31.9821 26.0054 31.9821Z" fill="#D1D1D1"/>
<path d="M29.9586 36.0002H6.04151C4.85196 36.0002 3.8877 35.0359 3.8877 33.8464V32.7673C3.8877 29.3624 6.9664 26.7856 10.3181 27.3853L13.047 27.8736C16.323 28.4597 19.6771 28.4597 22.9532 27.8736L25.682 27.3853C29.0338 26.7856 32.1125 29.3624 32.1125 32.7673V33.8464C32.1125 35.0359 31.1481 36.0002 29.9586 36.0002Z" fill="#C7C7C7"/>
</svg>
