<svg width="36" height="36" viewBox="0 0 36 36" fill="none" xmlns="http://www.w3.org/2000/svg">
<path d="M24.5735 0H11.4264C10.0566 0 8.94617 1.11045 8.94617 2.4802V6.20156C8.94617 7.57132 10.0566 8.68177 11.4264 8.68177H24.5735C25.9433 8.68177 27.0537 7.57132 27.0537 6.20156V2.4802C27.0538 1.11045 25.9434 0 24.5735 0Z" fill="#292861"/>
<path d="M20.7562 0H15.2438C13.874 0 12.7635 1.11045 12.7635 2.4802V6.20156C12.7635 7.57132 13.874 8.68177 15.2438 8.68177H20.7562C22.1259 8.68177 23.2364 7.57132 23.2364 6.20156V2.4802C23.2365 1.11045 22.126 0 20.7562 0Z" fill="#22214F"/>
<path d="M10 7.95752H26V31.9822H10V7.95752Z" fill="#313074"/>
<path d="M13.2288 29.3801H10.4731L9.74878 21.6001L10.4731 11.6249H10.5688C12.5995 11.6249 14.2457 13.2711 14.2457 15.3018V28.3632C14.2456 28.9248 13.7903 29.3801 13.2288 29.3801Z" fill="#292861"/>
<path d="M10.4731 24.7561L9.74878 26.7549L10.4731 29.3801H13.2288C13.7903 29.3801 14.2456 28.9249 14.2456 28.3633V24.7562H10.4731V24.7561Z" fill="white"/>
<path d="M25.5268 27.298L26.2512 20.5025L25.5268 11.6249H25.4312C23.4005 11.6249 21.7543 13.2711 21.7543 15.3018V27.9521" fill="#292861"/>
<path d="M21.7543 24.7561V29.2353L25.5268 28.1291L26.2512 25.9348L25.5268 24.7561H21.7543Z" fill="white"/>
<path d="M14.2457 22.6977H10.4731L9.74878 21.6001L10.4731 20.5024H14.2457V22.6977Z" fill="white"/>
<path d="M25.5268 22.6977H21.7543V20.5024H25.5268L26.2512 21.6001L25.5268 22.6977Z" fill="white"/>
<path d="M9.99479 31.9822H10.4731V7.95749L9.53783 6.99498C8.52702 5.95478 6.76379 6.67035 6.76379 8.12076V28.7512C6.76379 30.5357 8.2104 31.9822 9.99479 31.9822Z" fill="#22214F"/>
<path d="M26.0052 31.9822H25.5269V7.95749L26.4622 6.99498C27.473 5.95478 29.2362 6.67035 29.2362 8.12076V28.7512C29.2362 30.5357 27.7896 31.9822 26.0052 31.9822Z" fill="#22214F"/>
<path d="M29.9586 36H6.04151C4.85196 36 3.8877 35.0357 3.8877 33.8462V32.7671C3.8877 29.3621 6.9664 26.7854 10.3181 27.3851L13.047 27.8733C16.323 28.4595 19.6771 28.4595 22.9532 27.8733L25.682 27.3851C29.0338 26.7854 32.1125 29.3621 32.1125 32.7671V33.8462C32.1125 35.0357 31.1481 36 29.9586 36Z" fill="#292861"/>
</svg>
